<svg width="64" height="64" viewBox="0 0 64 64" fill="none" xmlns="http://www.w3.org/2000/svg">
  <path d="M8 48C8 48 12 32 16 28C20 24 24 20 32 20C40 20 44 24 48 28C52 32 56 48 56 48" stroke="#212D45" stroke-width="2" fill="none"/>
  <circle cx="16" cy="32" r="4" fill="#FFC03D"/>
  <circle cx="24" cy="28" r="4" fill="#FFC03D"/>
  <circle cx="32" cy="24" r="4" fill="#FFC03D"/>
  <circle cx="40" cy="28" r="4" fill="#FFC03D"/>
  <circle cx="48" cy="32" r="4" fill="#FFC03D"/>
  <path d="M8 48H56" stroke="#212D45" stroke-width="3"/>
  <rect x="6" y="48" width="4" height="8" fill="#212D45"/>
  <rect x="54" y="48" width="4" height="8" fill="#212D45"/>
  <path d="M28 12L32 8L36 12" stroke="#FFC03D" stroke-width="2" fill="none"/>
</svg>